# xmcd
#
# Track frame offsets:
#	187
#	21575
#	40537
#	60232
#	78185
#	100650
#	112787
#	127845
#	145662
#	161902
#	179930
#
# Disc length: 2696 seconds
#
# Revision: 1
# Processed by: cddbd v1.5.1PL0 Copyright (c) Steve Scherf et al.
# Submitted via: CDex 1.50Beta5
#
DISCID=840a860b
DTITLE=Various Artist - うる星やつら ★ラム・フォー・ザ・ワールド★
DYEAR=1900
DGENRE=Anime
TTITLE0=瀬戸口さゆり/ドリームフォーエバー
TTITLE1=松下丸子/トライアングルラブレター
TTITLE2=南 翔子/ハーフムーンはときめき色
TTITLE3=松永夏代子/メランコリーの軌跡
TTITLE4=松谷祐子/星のメモリー
TTITLE5=ラムのラブソング
TTITLE6=殿方ごめん遊ばせ
TTITLE7=ラムのバラード
TTITLE8=宇宙は大へんだ!
TTITLE9=メランコリーの軌跡
TTITLE10=星のメモリー
EXTD=
EXTT0=
EXTT1=
EXTT2=
EXTT3=
EXTT4=
EXTT5=
EXTT6=
EXTT7=
EXTT8=
EXTT9=
EXTT10=
PLAYORDER=
